<svg xmlns="http://www.w3.org/2000/svg" width="200" height="76" viewBox="0 0 200 76"><path fill="#fff" d="M68.80 3.86L42.92 68.16Q42.68 68.80 42.46 69.38Q42.24 69.97 41.89 70.46Q41.55 70.95 41.04 71.34Q40.53 71.73 39.75 71.97L39.75 71.97Q36.67 72.95 33.64 73.66Q30.62 74.37 27.54 75.39L27.54 75.39Q26.95 75.59 26.51 75.68Q26.07 75.78 25.68 75.78L25.68 75.78Q24.80 75.78 24.41 75.34Q24.02 74.90 23.83 74.22L23.83 74.22L7.13 7.81Q6.74 6.54 6.74 5.71L6.74 5.71Q6.74 4.64 7.42 3.93Q8.11 3.22 9.64 2.76Q11.18 2.29 13.60 1.90Q16.02 1.51 19.53 1.03L19.53 1.03Q21.24 0.78 22.41 0.66Q23.58 0.54 24.41 0.54L24.41 0.54Q25.83 0.54 26.29 1.00Q26.76 1.46 27.15 2.44L27.15 2.44L36.47 42.77L49.61 5.71Q49.90 4.93 50.12 4.44Q50.34 3.96 50.95 3.59Q51.56 3.22 52.81 2.86Q54.05 2.49 56.40 2.00L56.40 2.00Q60.06 1.22 62.45 0.88Q64.84 0.54 66.31 0.54L66.31 0.54Q68.16 0.54 68.73 0.98Q69.29 1.42 69.29 2.25L69.29 2.25Q69.34 2.59 69.17 2.95Q68.99 3.32 68.80 3.86L68.80 3.86ZM68.31 40.92L68.31 40.92Q68.31 35.30 69.60 30.15Q70.90 25 73.29 20.53Q75.68 16.06 79.08 12.43Q82.47 8.79 86.67 6.18Q90.87 3.56 95.78 2.15Q100.68 0.73 106.10 0.73L106.10 0.73Q110.40 0.73 113.65 1.29Q116.89 1.86 119.31 2.71Q121.73 3.56 123.36 4.59Q125 5.62 126.07 6.54L126.07 6.54Q126.03 6.54 126.03 6.88L126.03 6.88Q126.03 7.62 126.15 9.57Q126.27 11.52 126.44 13.92Q126.61 16.31 126.73 18.77Q126.86 21.24 126.86 23.05L126.86 23.05Q126.86 23.34 126.66 23.71Q126.46 24.07 125.68 24.07L125.68 24.07Q125.24 24.07 124.61 23.93L124.61 23.93Q123.58 23.63 122.02 22.58Q120.46 21.53 118.38 20.39Q116.31 19.24 113.75 18.33Q111.18 17.43 108.15 17.43L108.15 17.43Q104.15 17.43 100.88 19.12Q97.61 20.80 95.31 23.80Q93.02 26.81 91.75 30.93Q90.48 35.06 90.48 39.89L90.48 39.89Q90.48 44.14 91.26 47.85Q92.04 51.56 93.63 54.27Q95.21 56.98 97.56 58.54Q99.90 60.11 103.08 60.11L103.08 60.11Q106.15 60.11 110.06 58.79L110.06 58.79L111.18 51.90L101.86 51.90Q102.93 46.00 103.71 42.63Q104.49 39.26 105.18 37.55Q105.86 35.84 106.59 35.40Q107.32 34.96 108.30 34.96L108.30 34.96L133.98 34.96Q135.11 34.96 135.62 35.11Q136.13 35.25 136.13 36.13L136.13 36.13Q136.13 36.57 136.04 37.18Q135.94 37.79 135.79 38.67L135.79 38.67L133.35 46.88Q132.91 48.44 132.62 49.29Q132.32 50.15 131.88 50.56Q131.45 50.98 130.69 51.05Q129.93 51.12 128.52 51.12L128.52 51.12Q127.73 51.12 127.59 51.76Q127.44 52.39 127.34 53.08L127.34 53.08Q127.05 55.22 126.76 57.35Q126.46 59.47 126.20 61.30Q125.93 63.13 125.63 64.53Q125.34 65.92 125.05 66.55L125.05 66.55Q121.73 68.65 119.02 70.24Q116.31 71.83 113.62 72.88Q110.94 73.93 107.96 74.46Q104.98 75 101.12 75L101.12 75Q94.24 75 88.23 72.51Q82.23 70.02 77.81 65.50Q73.39 60.99 70.85 54.74Q68.31 48.49 68.31 40.92ZM182.03 43.60L182.03 7.03Q182.42 5.42 182.71 4.69Q183.01 3.96 183.98 3.71L183.98 3.71L196.63 0.73Q197.22 0.54 197.90 0.54L197.90 0.54Q198.54 0.54 198.83 0.98Q199.12 1.42 199.12 2.64L199.12 2.64Q198.83 3.81 198.63 6.23Q198.44 8.64 198.34 11.52Q198.24 14.40 198.19 17.31Q198.14 20.21 198.14 22.36L198.14 22.36L198.14 25.05Q198.14 28.08 198.10 31.64Q198.05 35.21 197.97 38.87Q197.90 42.53 197.80 46.09Q197.71 49.66 197.61 52.78L197.61 52.78L197.31 61.13Q197.27 61.38 197.27 61.57Q197.27 61.77 197.27 61.96L197.27 61.96L197.27 62.70Q197.27 63.53 197.29 64.09Q197.31 64.65 197.31 65.09L197.31 65.09Q197.31 65.58 197.24 65.97Q197.17 66.36 196.88 66.72Q196.58 67.09 196.07 67.48Q195.56 67.87 194.68 68.46L194.68 68.46Q194.19 68.80 193.07 69.46Q191.94 70.12 190.58 70.95Q189.21 71.78 187.74 72.66Q186.28 73.54 185.06 74.24Q183.84 74.95 183.08 75.39Q182.32 75.83 182.32 75.83L182.32 75.83L159.67 40.97L157.62 69.53Q157.57 69.92 157.45 70.36Q157.32 70.80 156.79 71.04L156.79 71.04Q156.35 71.24 155.27 71.66Q154.20 72.07 152.76 72.61Q151.32 73.14 149.73 73.71Q148.14 74.27 146.73 74.73Q145.31 75.20 144.21 75.49Q143.12 75.78 142.72 75.78L142.72 75.78Q141.99 75.78 141.50 75.39Q141.02 75 141.02 73.97L141.02 73.97Q141.50 67.87 142.14 60.67Q142.77 53.47 143.36 45.90Q143.95 38.33 144.46 30.79Q144.97 23.24 145.31 16.46L145.31 16.46Q145.31 16.26 144.70 15.16Q144.09 14.06 143.33 12.77Q142.58 11.47 141.97 10.33Q141.36 9.18 141.36 8.89L141.36 8.89Q141.36 8.54 141.72 8.25Q142.09 7.96 142.92 7.47L142.92 7.47L155.96 0.10Q156.10 0.10 156.37 0.05Q156.64 0 156.84 0L156.84 0Q157.37 0 157.69 0.12Q158.01 0.24 158.35 0.88L158.35 0.88L182.03 43.60Z"></path></svg>